<?xml version="1.0" standalone="no"?>
<!DOCTYPE svg PUBLIC "-//W3C//DTD SVG 20010904//EN"
 "http://www.w3.org/TR/2001/REC-SVG-20010904/DTD/svg10.dtd">
<svg version="1.0" xmlns="http://www.w3.org/2000/svg"
 width="353.000000pt" height="707.000000pt" viewBox="0 0 353.000000 707.000000"
 preserveAspectRatio="xMidYMid meet">

<g transform="translate(0.000000,707.000000) scale(0.100000,-0.100000)"
fill="#000000" stroke="none">
<path d="M1743 7017 c-6 -17 -26 -79 -43 -137 -54 -177 -192 -612 -300 -947
l-53 -161 53 -84 c30 -45 119 -183 199 -305 80 -121 151 -229 156 -238 7 -11
10 298 9 939 0 526 -3 958 -5 961 -3 2 -10 -10 -16 -28z"/>
<path d="M1710 4773 c-414 -34 -728 -347 -767 -765 l-6 -68 206 0 205 0 7 -50
c10 -73 38 -143 80 -200 20 -27 40 -50 43 -50 4 0 24 -15 45 -33 41 -37 113
-66 178 -73 24 -3 47 -8 51 -10 4 -3 8 -95 8 -204 l0 -199 -32 -4 c-24 -3 -19
-4 17 -5 67 -2 214 23 287 48 248 86 452 291 515 515 21 79 43 197 43 238 l0
37 -203 0 c-156 0 -204 3 -204 13 0 35 -26 123 -49 169 -54 106 -174 202 -270
213 -69 9 -92 16 -98 30 -3 8 -4 102 -3 210 1 107 0 194 -3 193 -3 -1 -25 -3
-50 -5z m57 -593 c1 -96 -1 -187 -4 -202 l-5 -28 -203 0 -202 0 9 55 c16 102
46 165 110 227 75 74 116 95 243 122 50 10 50 12 52 -174z m408 -283 c-28
-184 -157 -322 -334 -358 -53 -11 -64 -11 -72 1 -11 16 -8 378 3 395 4 6 81 9
208 7 l202 -3 -7 -42z"/>
<path d="M2011 2753 l-144 -4 27 -28 26 -27 -2 -247 -3 -246 -75 111 c-41 60
-77 115 -79 122 -2 6 -16 29 -31 51 -15 22 -46 69 -68 105 -22 36 -56 86 -74
112 l-33 48 -128 0 -129 0 26 -31 26 -31 0 -432 0 -433 -25 -23 c-13 -12 -22
-27 -19 -31 7 -12 294 -11 294 0 0 5 -10 18 -22 28 -23 18 -23 18 -18 262 5
226 6 242 21 225 15 -18 276 -417 321 -491 l20 -33 101 1 c56 1 113 4 127 8
l24 7 -23 16 -23 16 1 444 2 443 24 25 c28 29 32 41 13 38 -7 -1 -78 -4 -157
-5z"/>
<path d="M1767 803 l2 -608 98 -92 c54 -51 102 -93 106 -93 4 0 7 231 7 513
l-1 512 -31 55 c-17 30 -51 93 -76 140 -80 152 -96 180 -101 180 -4 0 -5 -273
-4 -607z"/>
</g>
</svg>
